Simulation
nRows=15
nColumns=15
endheader
time  TH_x TH_y TH_z SC_y  SC_z  SC_x  AC_y  AC_z  AC_x  GH_y  GH_z  GH_yy  EL_x  PS_y
0.0  0.000000  0.000000  0.000000  -44.89946581785613  6.134256298269713  14.733725050585395  58.80186607967838  8.66747446837056  7.525792949020858  64.69410296442939  52.56526857472726  -67.14046937123318  23.764011873291917  120.000000
0.04499999999999999  0.000000  0.000000  0.000000  -44.47643754531818  7.6952988009722825  13.986925813477997  58.192095689351376  10.278628330677092  9.53927865383871  64.31088986119133  55.495263868715064  -67.18245034751077  23.814679372005735  120.000000
0.08999999999999998  0.000000  0.000000  0.000000  -44.41052192115036  8.768397067396439  12.792611639581198  57.6837970037465  11.517114713976566  11.1305336625278  64.31951774087611  57.20071854594303  -67.35433480581213  23.780302165665415  120.000000
0.13499999999999998  0.000000  0.000000  0.000000  -44.38515251228096  9.184599853699941  11.524140719491102  57.31112277510448  12.705343582084442  12.205371290659041  64.44867822985063  57.8577498794604  -67.59265056463754  23.704291612559114  120.000000
0.17999999999999997  0.000000  0.000000  0.000000  -44.31292287872698  9.153031768278746  10.311058865329828  57.05769279391338  13.8322456593329  12.817881458933691  64.66047647169164  57.87165173787018  -67.91753392274293  23.68482278773055  120.000000
0.22499999999999995  0.000000  0.000000  0.000000  -44.25708324001969  8.859973361404071  9.14483204829718  56.87688099986163  14.789533168940496  13.141669582331065  64.9738461250679  57.58184144330773  -68.36255838619957  23.723121143021825  120.000000
0.26999999999999996  0.000000  0.000000  0.000000  -44.25179143852648  8.475392305666121  8.020513565545485  56.7567538119974  15.557954953983177  13.292111206609897  65.32141462586004  57.18002885032799  -68.91289377147407  23.82133666642248  120.000000
0.31499999999999995  0.000000  0.000000  0.000000  -44.28433251932974  8.044079236188296  6.960588347162788  56.69616479852553  16.16048956283144  13.358265958069019  65.64127826304473  56.734357625982554  -69.5148777669552  23.953154313360564  120.000000
0.35999999999999993  0.000000  0.000000  0.000000  -44.311199075340696  7.593931146854984  5.960175947112713  56.70858170240699  16.62296346962235  13.374146470687121  65.87848057465638  56.28537009621888  -70.13050881961212  24.116285741459183  120.000000
0.4049999999999999  0.000000  0.000000  0.000000  -44.31778373299585  7.1480612062919215  5.0061092340837225  56.78778386343679  16.95771092120707  13.383721114056447  66.03962955082532  55.831684374507944  -70.71197401857519  24.290640271429876  120.000000
0.4499999999999999  0.000000  0.000000  0.000000  -44.284774953224186  6.7228232695882415  4.068379702206431  56.92301152407445  17.17026678140901  13.416749728123854  66.13562771382135  55.36544394637416  -71.22928180897989  24.46670521317732  120.000000
0.4949999999999999  0.000000  0.000000  0.000000  -44.2037495033983  6.324290923224712  3.1305717417762735  57.10674259184762  17.283256768372848  13.487984184419274  66.19569780322863  54.86465453135072  -71.65040443081058  24.62505539755111  120.000000
0.5399999999999999  0.000000  0.000000  0.000000  -44.064448717912725  5.951782790506182  2.169743408402225  57.31917185911429  17.307735111421835  13.61554519964665  66.25064247839822  54.312208218290294  -71.96315687033871  24.76812091089015  120.000000
0.5849999999999999  0.000000  0.000000  0.000000  -43.86469220736121  5.603735208443781  1.1748219826624202  57.55114723148241  17.269447227243266  13.798449198121936  66.33381941954562  53.698998779287635  -72.16379937279393  24.90168841850843  120.000000
0.6299999999999999  0.000000  0.000000  0.000000  -43.603969570338634  5.2791887456269775  0.13464813667297582  57.78154495676158  17.179500063547103  14.048288891742345  66.48212840541026  53.02057960614747  -72.25933403000766  25.04566363714225  120.000000
